<svg xmlns="http://www.w3.org/2000/svg" xmlns:xlink="http://www.w3.org/1999/xlink" width="500" zoomAndPan="magnify" viewBox="0 0 375 374.999991" height="500" preserveAspectRatio="xMidYMid meet" version="1.2"><g id="cd75839dd4"><path style=" stroke:none;fill-rule:nonzero;fill:#5758a6;fill-opacity:1;" d="M 95.800781 150.476562 C 90.078125 151.421875 83.460938 155.203125 78.683594 160.28125 C 68.632812 170.976562 67.191406 186.203125 75.199219 196.851562 C 78.1875 200.730469 83.707031 204.511719 89.183594 206.304688 C 95.949219 208.59375 104.160156 208.046875 111.023438 204.910156 C 114.65625 203.21875 119.285156 198.691406 121.125 194.960938 C 128.140625 180.679688 116.449219 164.210938 100.277344 165.503906 C 93.710938 166.003906 86.542969 171.375 85.25 176.75 C 83.808594 182.71875 86.894531 188.589844 92.863281 191.226562 C 97.839844 193.417969 102.515625 193.019531 105.949219 190.035156 C 107.691406 188.542969 107.890625 188.09375 107.890625 186.101562 C 107.890625 182.023438 104.605469 180.03125 99.78125 181.175781 C 96.148438 181.972656 94.855469 180.78125 96.894531 178.441406 C 98.535156 176.550781 102.964844 176.25 106.296875 177.792969 C 109.730469 179.4375 111.273438 181.675781 111.523438 185.457031 C 111.722656 188.242188 111.570312 188.691406 110.03125 190.980469 C 107.492188 194.761719 104.753906 195.957031 98.4375 195.957031 C 94.15625 195.957031 93.113281 195.757812 90.722656 194.660156 C 86.742188 192.820312 85.003906 191.078125 83.160156 187.347656 C 81.667969 184.363281 81.519531 183.617188 81.519531 179.535156 C 81.519531 174.210938 82.464844 171.824219 86.347656 167.59375 C 93.460938 159.78125 105.75 158.9375 115.703125 165.503906 C 123.214844 170.53125 126.847656 177.792969 126.449219 187.199219 C 126.300781 191.476562 126.101562 192.421875 124.457031 195.855469 C 120.378906 204.414062 112.667969 209.6875 102.117188 211.179688 C 94.503906 212.226562 87.738281 210.382812 79.726562 205.109375 C 77.539062 203.667969 75.648438 202.773438 75.199219 202.921875 C 74.753906 203.121094 72.8125 206.203125 70.820312 209.789062 C 68.832031 213.417969 67.140625 216.453125 67.039062 216.554688 C 66.992188 216.652344 65.847656 216.304688 64.550781 215.808594 C 62.3125 214.960938 62.214844 214.960938 61.566406 215.859375 C 60.523438 217.25 60.871094 217.699219 64.054688 219.242188 C 68.335938 221.332031 68.683594 221.132812 72.613281 214.117188 C 74.40625 210.832031 76.097656 207.996094 76.34375 207.898438 C 76.542969 207.746094 77.589844 208.195312 78.632812 208.941406 C 83.3125 212.125 89.578125 214.414062 95.152344 214.914062 L 98.4375 215.210938 L 98.386719 220.234375 C 98.335938 226.007812 98.785156 228.496094 99.980469 229.390625 C 101.273438 230.335938 110.328125 230.285156 111.074219 229.339844 C 111.523438 228.792969 111.570312 228.347656 111.125 227.601562 C 110.675781 226.65625 110.128906 226.554688 106.398438 226.554688 L 102.167969 226.554688 L 102.167969 214.8125 L 105.699219 214.265625 C 112.070312 213.269531 119.136719 209.089844 124.011719 203.46875 C 133.015625 193.019531 132.371094 176.300781 122.566406 166.550781 C 115.203125 159.234375 104.308594 155.851562 95.449219 158.140625 C 88.535156 159.980469 82.414062 164.757812 79.628906 170.679688 C 78.136719 173.863281 78.035156 174.359375 78.035156 179.785156 C 78.035156 185.207031 78.136719 185.65625 79.628906 188.789062 C 81.617188 192.820312 84.703125 195.757812 89.132812 197.847656 C 92.316406 199.386719 92.714844 199.4375 98.683594 199.4375 C 104.507812 199.4375 105.054688 199.339844 107.441406 198.09375 C 111.921875 195.757812 115.601562 190.382812 115.601562 186.253906 C 115.601562 179.335938 109.132812 173.117188 101.96875 173.117188 C 95.949219 173.167969 91.867188 176.300781 92.414062 180.53125 C 92.863281 184.363281 96.394531 186.152344 100.527344 184.660156 C 102.566406 183.914062 103.910156 184.5625 103.910156 186.300781 C 103.910156 187.894531 102.070312 188.742188 98.683594 188.742188 C 89.03125 188.691406 85.203125 178.292969 92.664062 172.371094 C 95.601562 170.03125 97.988281 169.1875 101.917969 169.1875 C 117.09375 169.035156 125.054688 186.003906 115.105469 197.347656 C 111.570312 201.328125 104.507812 204.164062 97.9375 204.164062 C 89.53125 204.164062 80.277344 198.988281 76.542969 192.171875 C 71.417969 182.769531 73.507812 170.679688 81.71875 162.371094 C 87.292969 156.699219 93.660156 153.910156 100.925781 153.910156 C 108.339844 153.910156 114.855469 156.449219 123.363281 162.617188 C 129.832031 167.34375 130.378906 167.394531 132.816406 163.214844 C 133.8125 161.523438 134.707031 160.03125 134.757812 159.933594 C 134.859375 159.832031 135.953125 160.527344 137.195312 161.375 C 139.085938 162.769531 139.585938 162.917969 140.230469 162.371094 C 141.574219 161.226562 141.027344 159.980469 138.292969 157.890625 C 134.558594 155.054688 133.316406 155.253906 131.125 158.886719 C 130.230469 160.378906 129.335938 161.671875 129.085938 161.773438 C 128.835938 161.871094 127.195312 160.828125 125.453125 159.484375 C 119.136719 154.707031 112.914062 151.871094 106.148438 150.628906 C 101.96875 149.882812 99.628906 149.832031 95.800781 150.476562 Z M 95.800781 150.476562 "/><path style=" stroke:none;fill-rule:nonzero;fill:#5758a6;fill-opacity:1;" d="M 146.949219 153.910156 C 146.949219 154.160156 146.949219 162.171875 146.949219 171.675781 L 146.898438 188.988281 L 157.148438 189.136719 L 167.347656 189.238281 L 167.347656 184.761719 L 151.425781 184.761719 L 151.425781 153.414062 L 149.1875 153.414062 C 147.945312 153.414062 146.949219 153.613281 146.949219 153.910156 Z M 146.949219 153.910156 "/><path style=" stroke:none;fill-rule:nonzero;fill:#5758a6;fill-opacity:1;" d="M 170.832031 171.324219 L 170.832031 189.238281 L 175.808594 189.238281 L 175.808594 153.414062 L 170.832031 153.414062 Z M 170.832031 171.324219 "/><path style=" stroke:none;fill-rule:nonzero;fill:#5758a6;fill-opacity:1;" d="M 181.777344 171.324219 L 181.777344 189.238281 L 186.753906 189.238281 L 186.753906 172.820312 L 200.1875 172.820312 L 200.1875 168.839844 L 186.753906 168.839844 L 186.753906 157.890625 L 202.179688 157.890625 L 202.179688 153.414062 L 181.777344 153.414062 Z M 181.777344 171.324219 "/><path style=" stroke:none;fill-rule:nonzero;fill:#5758a6;fill-opacity:1;" d="M 213.371094 158.289062 C 210.535156 159.632812 207.851562 162.816406 206.953125 165.902344 C 205.960938 169.1875 205.960938 171.027344 206.90625 174.113281 C 207.300781 175.457031 207.652344 176.847656 207.652344 177.195312 C 207.652344 178.140625 204.566406 179.285156 201.980469 179.285156 C 200.636719 179.285156 199.441406 179.585938 198.992188 180.082031 C 198.046875 181.027344 198 181.328125 198.84375 182.472656 C 199.390625 183.21875 200.039062 183.316406 202.726562 183.167969 C 204.464844 183.066406 206.953125 182.671875 208.296875 182.273438 C 210.535156 181.625 210.6875 181.625 211.382812 182.621094 C 212.378906 184.011719 216.90625 187 219.941406 188.191406 C 226.65625 190.832031 233.773438 189.1875 241.234375 183.265625 C 245.964844 179.484375 247.007812 177.148438 244.46875 175.804688 C 243.722656 175.40625 243.078125 175.804688 240.640625 178.191406 C 236.460938 182.273438 230.042969 185.207031 225.265625 185.257812 C 222.628906 185.257812 218.894531 183.863281 216.707031 181.972656 C 215.5625 181.027344 214.617188 179.984375 214.617188 179.734375 C 214.617188 179.484375 215.5625 178.691406 216.757812 177.992188 C 221.832031 174.859375 225.5625 169.734375 225.5625 165.851562 C 225.5625 163.613281 223.722656 159.980469 221.980469 158.6875 C 220.039062 157.292969 215.910156 157.09375 213.371094 158.289062 Z M 218.796875 161.871094 C 220.539062 162.519531 221.730469 165.054688 221.332031 167.246094 C 220.9375 169.285156 217.15625 173.566406 214.367188 175.058594 C 212.527344 176.003906 212.527344 176.003906 211.832031 175.058594 C 210.933594 173.863281 210.140625 171.027344 210.140625 169.085938 C 210.140625 166.75 212.128906 163.316406 214.121094 162.269531 C 216.058594 161.273438 217.003906 161.175781 218.796875 161.871094 Z M 218.796875 161.871094 "/><path style=" stroke:none;fill-rule:nonzero;fill:#5758a6;fill-opacity:1;" d="M 191.578125 194.460938 C 186.554688 196.351562 183.171875 201.277344 182.175781 208.046875 C 180.683594 218.195312 184.761719 227.550781 191.878906 230.285156 C 194.863281 231.429688 200.089844 231.132812 202.972656 229.640625 C 210.335938 225.910156 213.523438 213.667969 209.890625 203.070312 C 208.894531 200.183594 205.710938 196.503906 202.972656 195.109375 C 200.335938 193.765625 194.316406 193.417969 191.578125 194.460938 Z M 201.230469 199.289062 C 209.191406 203.71875 209.042969 221.628906 201.035156 225.710938 C 199.839844 226.355469 198.148438 226.65625 196.457031 226.65625 C 192.175781 226.605469 189.738281 224.863281 187.648438 220.335938 C 186.652344 218.195312 186.503906 217.050781 186.503906 212.375 C 186.503906 207.699219 186.652344 206.554688 187.648438 204.414062 C 189.738281 199.835938 192.078125 198.242188 196.65625 198.195312 C 198.496094 198.195312 199.890625 198.542969 201.230469 199.289062 Z M 201.230469 199.289062 "/><path style=" stroke:none;fill-rule:nonzero;fill:#5758a6;fill-opacity:1;" d="M 273.230469 194.414062 C 267.90625 196.402344 265.667969 200.433594 266.613281 206.253906 C 267.257812 209.886719 269.546875 211.679688 276.3125 213.769531 C 279.449219 214.761719 282.535156 215.90625 283.128906 216.355469 C 285.917969 218.296875 285.617188 223.769531 282.632812 225.558594 C 277.308594 228.792969 270.441406 226.058594 269.597656 220.386719 C 269.25 218.097656 269.199219 218.097656 267.308594 218.097656 C 265.515625 218.097656 265.367188 218.195312 265.367188 219.488281 C 265.367188 220.285156 265.714844 222.027344 266.113281 223.421875 C 267.90625 229.492188 275.46875 232.625 282.433594 230.238281 C 288.058594 228.347656 290.792969 220.980469 287.957031 215.507812 C 286.414062 212.574219 284.273438 211.328125 277.457031 209.390625 C 271.1875 207.597656 269.097656 204.960938 270.890625 201.03125 C 272.085938 198.34375 277.410156 197.199219 280.644531 198.890625 C 282.183594 199.6875 283.777344 202.324219 283.777344 204.113281 C 283.777344 205.011719 284.074219 205.160156 285.816406 205.160156 L 287.90625 205.160156 L 287.609375 202.574219 C 287.210938 199.386719 285.269531 196.453125 282.683594 195.058594 C 280.246094 193.816406 275.617188 193.515625 273.230469 194.414062 Z M 273.230469 194.414062 "/><path style=" stroke:none;fill-rule:nonzero;fill:#5758a6;fill-opacity:1;" d="M 146.949219 212.125 L 146.949219 230.039062 L 151.425781 230.039062 L 151.527344 215.859375 L 151.675781 201.628906 L 154.0625 209.488281 C 155.40625 213.816406 157.347656 220.1875 158.441406 223.667969 L 160.433594 230.039062 L 164.613281 230.039062 L 169.191406 215.707031 L 173.765625 201.429688 L 173.816406 215.707031 L 173.816406 230.039062 L 178.792969 230.039062 L 178.792969 212.125 L 178.742188 194.164062 L 175.210938 194.3125 L 171.726562 194.460938 L 167.199219 209.039062 C 164.710938 217.050781 162.523438 223.320312 162.324219 222.972656 C 162.125 222.625 160.929688 218.84375 159.6875 214.613281 C 158.390625 210.382812 156.453125 204.066406 155.355469 200.53125 L 153.367188 194.214844 L 146.949219 194.214844 Z M 146.949219 212.125 "/><path style=" stroke:none;fill-rule:nonzero;fill:#5758a6;fill-opacity:1;" d="M 213.074219 198.542969 C 213.820312 200.683594 216.65625 208.644531 219.34375 216.207031 L 224.21875 230.039062 L 229.890625 230.039062 L 230.6875 227.898438 C 232.03125 224.316406 242.480469 195.058594 242.480469 194.859375 C 242.480469 194.761719 241.335938 194.710938 239.894531 194.8125 L 237.355469 194.960938 L 232.378906 209.789062 C 229.691406 217.945312 227.304688 224.464844 227.105469 224.316406 C 226.957031 224.117188 224.667969 217.449219 222.082031 209.488281 L 217.304688 194.960938 L 214.46875 194.8125 L 211.632812 194.660156 Z M 213.074219 198.542969 "/><path style=" stroke:none;fill-rule:nonzero;fill:#5758a6;fill-opacity:1;" d="M 245.964844 212.375 L 245.964844 230.039062 L 262.878906 230.039062 L 262.878906 226.105469 L 257.058594 225.957031 L 251.1875 225.808594 L 251.039062 219.9375 L 250.890625 214.117188 L 261.386719 214.117188 L 261.386719 209.636719 L 250.890625 209.636719 L 251.039062 204.265625 L 251.1875 198.941406 L 257.058594 198.792969 L 262.878906 198.640625 L 262.878906 194.710938 L 245.964844 194.710938 Z M 245.964844 212.375 "/></g></svg>